<svg width="256" height="256" viewBox="0 0 256 256" fill="none" xmlns="http://www.w3.org/2000/svg">
<path d="M176.606 122.013C170.371 122.013 164.001 121.486 158.484 118.57C153.412 115.89 148.941 112.185 145.071 107.456C139.116 100.178 136.138 91.6865 136.138 81.982V21.078C136.138 13.4719 138.919 4 146.496 4C154.073 4 156.853 13.4719 156.853 21.078V75.4836C156.853 79.0726 159.752 81.982 163.327 81.982C166.902 81.982 169.801 79.0726 169.801 75.4835V19.0328C169.801 12.5657 171.127 4 177.569 4C184.011 4 185.337 12.5657 185.337 19.0328V75.4836C185.337 79.0726 188.236 81.982 191.811 81.982C195.386 81.982 198.284 79.0726 198.284 75.4835V21.0779C198.284 13.4718 201.065 4 208.642 4C216.219 4 219 13.4719 219 21.078V81.982C219 91.6865 216.022 100.178 210.066 107.456C206.197 112.185 201.726 115.89 196.654 118.571C191.137 121.486 184.767 122.013 178.532 122.013H176.606Z" fill="#34495D" style="fill:#34495D;fill:color(display-p3 0.2039 0.2863 0.3647);fill-opacity:1;"/>
<path d="M156.487 248.186C130.247 256.081 97.1049 254.389 71.4706 242.189C60.0909 236.311 51.4732 227.882 45.6177 216.902C39.8726 205.811 37 192.336 37 176.476V4.9569H81.0826V171.319C81.0826 181.855 82.4637 190.117 85.2257 196.106C88.0983 202.095 93.7278 214.35 119.574 214.35C145.42 214.35 156.487 204.419 156.487 171.319C156.487 138.218 156.487 108.933 156.487 108.933H200.073V171.651C200.073 214.35 182.727 240.291 156.487 248.186Z" fill="#34495D" style="fill:#34495D;fill:color(display-p3 0.2039 0.2863 0.3647);fill-opacity:1;"/>
</svg>
