<svg width="226" height="53" viewBox="0 0 226 53" fill="none" xmlns="http://www.w3.org/2000/svg">
<g id="UKHSC">
<path id="Vector" d="M216.481 30.3761H226C225.423 34.7005 223.876 38.5766 221.359 42.0045C218.894 45.3796 215.747 48.0692 211.918 50.0731C208.142 52.0244 203.999 53 199.489 53C195.713 53 192.199 52.3408 188.947 51.0224C185.696 49.6512 182.838 47.7527 180.373 45.3269C177.908 42.901 175.993 40.106 174.63 36.9418C173.266 33.7249 172.585 30.2443 172.585 26.5C172.585 22.7557 173.266 19.3015 174.63 16.1373C175.993 12.9204 177.908 10.099 180.373 7.67313C182.838 5.24726 185.696 3.37512 188.947 2.05672C192.199 0.685571 195.713 0 199.489 0C203.789 0 207.775 0.922886 211.446 2.76866C215.118 4.56169 218.186 7.0403 220.65 10.2045C223.168 13.3159 224.846 16.8756 225.685 20.8836H216.088C215.301 18.5104 214.095 16.401 212.469 14.5552C210.843 12.7095 208.903 11.2856 206.648 10.2836C204.445 9.22886 202.059 8.70149 199.489 8.70149C197.024 8.70149 194.743 9.14975 192.645 10.0463C190.547 10.9428 188.711 12.2085 187.138 13.8433C185.565 15.4781 184.306 17.3766 183.362 19.5388C182.47 21.701 182.025 24.0214 182.025 26.5C182.025 28.9786 182.47 31.299 183.362 33.4612C184.306 35.6234 185.565 37.5219 187.138 39.1567C188.711 40.7915 190.547 42.0572 192.645 42.9537C194.743 43.8503 197.024 44.2985 199.489 44.2985C202.268 44.2985 204.838 43.692 207.198 42.4791C209.558 41.2662 211.551 39.605 213.177 37.4955C214.855 35.3861 215.957 33.0129 216.481 30.3761Z" fill="black" style="fill:black;fill-opacity:1;"/>
<path id="Vector_2" d="M150.406 53C147.154 53 144.165 52.3408 141.438 51.0224C138.763 49.704 136.639 47.8582 135.066 45.4851C133.492 43.0592 132.706 40.1587 132.706 36.7836H141.831C141.831 38.3657 142.172 39.7632 142.854 40.9761C143.588 42.1891 144.611 43.1383 145.922 43.8239C147.233 44.5095 148.701 44.8522 150.327 44.8522C152.687 44.8522 154.601 44.2194 156.07 42.9537C157.538 41.6881 158.273 40.0796 158.273 38.1284C158.273 36.599 157.827 35.3597 156.935 34.4104C156.044 33.4085 154.864 32.5647 153.395 31.8791C151.927 31.1935 150.301 30.5607 148.518 29.9806C146.787 29.4005 145.03 28.7149 143.247 27.9239C141.516 27.1328 139.917 26.1836 138.448 25.0761C136.98 23.9687 135.8 22.5711 134.908 20.8836C134.069 19.196 133.65 17.0602 133.65 14.4761C133.65 11.8393 134.331 9.4398 135.695 7.27761C137.111 5.06269 139.025 3.29602 141.438 1.97761C143.903 0.659204 146.656 0 149.698 0C153.002 0 155.913 0.659204 158.43 1.97761C160.947 3.24328 162.914 5.03632 164.33 7.35671C165.746 9.67711 166.454 12.3403 166.454 15.3463H157.329C157.329 13.1841 156.621 11.4438 155.205 10.1254C153.789 8.80696 151.953 8.14776 149.698 8.14776C148.439 8.14776 147.285 8.41144 146.236 8.9388C145.188 9.46617 144.348 10.2045 143.719 11.1537C143.09 12.0502 142.775 13.0786 142.775 14.2388C142.775 15.7154 143.221 16.9284 144.112 17.8776C145.004 18.7741 146.184 19.5652 147.652 20.2507C149.121 20.9363 150.721 21.5955 152.451 22.2284C154.234 22.8085 155.991 23.494 157.722 24.2851C159.505 25.0234 161.131 25.9726 162.599 27.1328C164.068 28.293 165.248 29.7433 166.139 31.4836C167.031 33.2239 167.477 35.3861 167.477 37.9701C167.477 40.8179 166.743 43.3756 165.274 45.6433C163.806 47.9109 161.786 49.704 159.217 51.0224C156.699 52.3408 153.762 53 150.406 53Z" fill="black" style="fill:black;fill-opacity:1;"/>
<path id="Vector_3" d="M89.5146 52.2089V0.791016H98.7187V39.1567L94.156 39.6313C94.6804 35.9398 95.9916 32.7492 98.0894 30.0597C100.24 27.3174 102.967 25.2079 106.271 23.7313C109.627 22.2547 113.43 21.5164 117.678 21.5164H121.218V30.3761H115.947C112.486 30.3761 109.47 31.1408 106.9 32.6701C104.33 34.1995 102.311 36.3089 100.843 38.9985C99.4267 41.688 98.7187 44.8786 98.7187 48.5701V52.2089H89.5146ZM125.466 52.2089H116.183V0.791016H125.466V52.2089Z" fill="black" style="fill:black;fill-opacity:1;"/>
<path id="Vector_4" d="M44.7262 52.2089V0.791016H53.9303V38.2074L48.3449 41.8462L71.6305 0.791016H81.7L63.7638 31.7209L57.077 30.5343C58.0735 29.8487 59.1748 29.3214 60.3811 28.9522C61.5873 28.5831 62.7411 28.3985 63.8424 28.3985C67.4612 28.3985 70.6341 29.1368 73.3612 30.6134C76.0884 32.0373 78.1862 34.0413 79.6547 36.6253C81.1756 39.2094 81.936 42.2681 81.936 45.8015V52.2089H72.5746V46.4343C72.5746 44.4831 72.1812 42.7955 71.3945 41.3716C70.6079 39.895 69.5065 38.7348 68.0905 37.891C66.7269 37.0472 65.1011 36.6253 63.2131 36.6253C61.43 36.6253 59.8304 37.0472 58.4144 37.891C56.9984 38.7348 55.897 39.895 55.1103 41.3716C54.3237 42.7955 53.9303 44.4831 53.9303 46.4343V52.2089H44.7262Z" fill="black" style="fill:black;fill-opacity:1;"/>
<path id="Vector_5" d="M17.7789 43.9821C19.4571 43.9821 20.8994 43.6129 22.1056 42.8746C23.3643 42.1363 24.3608 41.1343 25.095 39.8686C25.8292 38.603 26.1963 37.1263 26.1963 35.4388V19.1828H35.4791V35.4388C35.4791 38.9194 34.7449 42.0045 33.2764 44.694C31.808 47.3308 29.7364 49.3875 27.0617 50.8642C24.4394 52.288 21.3452 53 17.7789 53C14.2126 53 11.0921 52.288 8.41744 50.8642C5.74274 49.3875 3.67116 47.3308 2.2027 44.694C0.734232 42.0045 0 38.9194 0 35.4388V0.791016H9.20412V35.4388C9.20412 37.1263 9.57124 38.603 10.3055 39.8686C11.0397 41.1343 12.0362 42.1363 13.2948 42.8746C14.606 43.6129 16.1007 43.9821 17.7789 43.9821Z" fill="black" style="fill:black;fill-opacity:1;"/>
<path id="Vector_6" d="M30.0859 25.7089C28.7836 25.7089 27.4532 25.5978 26.3008 24.9821C25.2415 24.4161 24.3077 23.6339 23.4994 22.6354C22.2555 21.0986 21.6335 19.3056 21.6335 17.2566V4.39695C21.6335 2.79096 22.2144 0.791016 23.7969 0.791016C25.3795 0.791016 25.9603 2.79096 25.9603 4.39696V15.8845C25.9603 16.6423 26.5656 17.2566 27.3124 17.2566C28.0591 17.2566 28.6645 16.6423 28.6645 15.8845V3.96513C28.6645 2.59962 28.9414 0.791016 30.287 0.791016C31.6326 0.791016 31.9095 2.59962 31.9095 3.96513V15.8845C31.9095 16.6423 32.5149 17.2566 33.2616 17.2566C34.0084 17.2566 34.6137 16.6423 34.6137 15.8845V4.39695C34.6137 2.79095 35.1945 0.791016 36.7771 0.791016C38.3596 0.791016 38.9404 2.79096 38.9404 4.39696V17.2566C38.9404 19.3056 38.3185 21.0986 37.0745 22.6354C36.2663 23.6339 35.3325 24.4161 34.2731 24.9821C33.1208 25.5978 31.7904 25.7089 30.4881 25.7089H30.0859Z" fill="black" style="fill:black;fill-opacity:1;"/>
</g>
</svg>
